<svg width="101" height="26" viewBox="0 0 101 26" fill="none" xmlns="http://www.w3.org/2000/svg">
<path d="M14.976 12.3008C14.9868 11.4662 15.2104 10.6478 15.6258 9.92182C16.0413 9.19587 16.6352 8.58593 17.3522 8.14876C16.8967 7.5036 16.2958 6.97266 15.5972 6.5981C14.8986 6.22355 14.1215 6.01571 13.3277 5.99108C11.6344 5.81482 9.99289 6.99591 9.13003 6.99591C8.25047 6.99591 6.92196 6.00858 5.49137 6.03777C4.56603 6.06742 3.66421 6.33427 2.87378 6.81233C2.08335 7.29039 1.43127 7.96335 0.981076 8.76564C-0.969086 12.1141 0.485558 17.0351 2.35365 19.7417C3.2883 21.0671 4.38063 22.5475 5.80992 22.495C7.20858 22.4375 7.73095 21.6105 9.41924 21.6105C11.0919 21.6105 11.5819 22.495 13.0402 22.4616C14.5411 22.4375 15.4867 21.1304 16.3885 19.7925C17.06 18.8481 17.5768 17.8044 17.9196 16.7C17.0477 16.3343 16.3036 15.7221 15.7801 14.9398C15.2567 14.1575 14.977 13.2397 14.976 12.3008Z" fill="white"/>
<path d="M12.2216 4.21108C13.0399 3.23687 13.443 1.98469 13.3454 0.720459C12.0952 0.85068 10.9404 1.44324 10.111 2.38007C9.70551 2.83773 9.39494 3.37017 9.19705 3.94694C8.99917 4.52371 8.91785 5.1335 8.95774 5.74146C9.58307 5.74784 10.2017 5.61343 10.767 5.34834C11.3324 5.08326 11.8297 4.69441 12.2216 4.21108Z" fill="white"/>
<path d="M32.6561 19.1398H27.8831L26.7369 22.4962H24.7153L29.2361 10.0782H31.3365L35.8574 22.4962H33.8013L32.6561 19.1398ZM28.3775 17.591H32.1608L30.2957 12.1437H30.2435L28.3775 17.591Z" fill="white"/>
<path d="M45.6211 17.9699C45.6211 20.7834 44.1026 22.591 41.8112 22.591C41.2307 22.6211 40.6534 22.4885 40.1454 22.2084C39.6374 21.9283 39.2192 21.5119 38.9388 21.007H38.8954V25.4914H37.0215V13.4426H38.8354V14.9485H38.8698C39.1632 14.446 39.5885 14.0318 40.1003 13.7499C40.6122 13.4681 41.1915 13.3291 41.7767 13.3479C44.0937 13.3479 45.6211 15.1643 45.6211 17.9699ZM43.695 17.9699C43.695 16.1369 42.7398 14.9319 41.2824 14.9319C39.8506 14.9319 38.8875 16.1623 38.8875 17.9699C38.8875 19.7942 39.8506 21.0158 41.2824 21.0158C42.7398 21.0158 43.695 19.8196 43.695 17.9699Z" fill="white"/>
<path d="M55.6692 17.9699C55.6692 20.7834 54.1508 22.591 51.8593 22.591C51.2788 22.6211 50.7016 22.4885 50.1936 22.2084C49.6855 21.9283 49.2674 21.5119 48.9869 21.007H48.9435V25.4914H47.0696V13.4426H48.8834V14.9484H48.9179C49.2113 14.446 49.6365 14.0318 50.1484 13.7499C50.6603 13.4681 51.2396 13.3291 51.8248 13.3479C54.1419 13.3479 55.6692 15.1643 55.6692 17.9699ZM53.7431 17.9699C53.7431 16.1369 52.7879 14.9318 51.3305 14.9318C49.8987 14.9318 48.9357 16.1623 48.9357 17.9699C48.9357 19.7942 49.8987 21.0158 51.3305 21.0158C52.7879 21.0158 53.7431 19.8195 53.7431 17.9699H53.7431Z" fill="white"/>
<path d="M62.3102 19.0363C62.449 20.2678 63.6553 21.0763 65.3037 21.0763C66.8832 21.0763 68.0196 20.2677 68.0196 19.1574C68.0196 18.1935 67.3342 17.6164 65.7114 17.2208L64.0886 16.8331C61.7893 16.2824 60.7218 15.2159 60.7218 13.4855C60.7218 11.3429 62.6046 9.87122 65.2781 9.87122C67.9241 9.87122 69.7379 11.3429 69.799 13.4855H67.9073C67.7941 12.2462 66.7611 11.4982 65.2515 11.4982C63.7419 11.4982 62.709 12.255 62.709 13.3566C62.709 14.2345 63.3687 14.7511 64.9827 15.1466L66.3623 15.4825C68.9314 16.0851 69.9989 17.1085 69.9989 18.9249C69.9989 21.2481 68.1328 22.7032 65.1649 22.7032C62.3879 22.7032 60.513 21.2823 60.3919 19.0362L62.3102 19.0363Z" fill="white"/>
<path d="M74.0431 11.2999V13.4425H75.7792V14.9142H74.0431V19.9054C74.0431 20.6808 74.3907 21.0421 75.1539 21.0421C75.36 21.0386 75.5657 21.0242 75.7703 20.9991V22.462C75.4272 22.5256 75.0785 22.5544 74.7295 22.5479C72.8811 22.5479 72.1603 21.8595 72.1603 20.1036V14.9142H70.8329V13.4425H72.1603V11.2999H74.0431Z" fill="white"/>
<path d="M76.7846 17.9698C76.7846 15.1212 78.4763 13.3312 81.1144 13.3312C83.7614 13.3312 85.4452 15.1212 85.4452 17.9698C85.4452 20.8263 83.7702 22.6085 81.1144 22.6085C78.4596 22.6085 76.7846 20.8263 76.7846 17.9698ZM83.5358 17.9698C83.5358 16.0157 82.6329 14.8624 81.1144 14.8624C79.596 14.8624 78.694 16.0245 78.694 17.9698C78.694 19.9318 79.596 21.0763 81.1144 21.0763C82.6329 21.0763 83.5358 19.9318 83.5358 17.9698H83.5358Z" fill="white"/>
<path d="M86.9903 13.4425H88.7775V14.9835H88.8209C88.9418 14.5022 89.2261 14.0769 89.626 13.779C90.0259 13.4811 90.5171 13.3288 91.0168 13.3478C91.2328 13.347 91.4481 13.3703 91.6589 13.4171V15.1554C91.3862 15.0728 91.1019 15.0348 90.8169 15.0431C90.5447 15.0321 90.2733 15.0797 90.0213 15.1826C89.7694 15.2855 89.5429 15.4412 89.3574 15.6391C89.1719 15.837 89.0318 16.0724 88.9466 16.3291C88.8615 16.5857 88.8334 16.8576 88.8642 17.1261V22.4962H86.9903L86.9903 13.4425Z" fill="white"/>
<path d="M100.299 19.837C100.047 21.4806 98.4327 22.6085 96.3678 22.6085C93.712 22.6085 92.0636 20.8439 92.0636 18.0128C92.0636 15.173 93.7208 13.3312 96.289 13.3312C98.8148 13.3312 100.403 15.0519 100.403 17.797V18.4337H93.9552V18.546C93.9255 18.8792 93.9675 19.2149 94.0786 19.5307C94.1897 19.8466 94.3673 20.1353 94.5996 20.3779C94.8319 20.6204 95.1135 20.8112 95.4259 20.9375C95.7382 21.0638 96.074 21.1228 96.4111 21.1105C96.8539 21.1516 97.2983 21.0499 97.6782 20.8205C98.0581 20.591 98.3531 20.2461 98.5194 19.837L100.299 19.837ZM93.9641 17.1349H98.5283C98.5451 16.8353 98.4993 16.5355 98.3937 16.2543C98.2882 15.9731 98.1252 15.7165 97.9149 15.5008C97.7046 15.285 97.4517 15.1147 97.1719 15.0004C96.8921 14.8862 96.5915 14.8306 96.289 14.837C95.9838 14.8352 95.6813 14.8934 95.399 15.0081C95.1166 15.1229 94.8599 15.2919 94.6438 15.5056C94.4276 15.7192 94.2563 15.9732 94.1396 16.2528C94.0229 16.5325 93.9633 16.8323 93.9641 17.1349V17.1349Z" fill="white"/>
</svg>
